<svg width="20" height="20" viewBox="0 0 20 20" fill="none" xmlns="http://www.w3.org/2000/svg">
<path d="M10.8672 5.83203H10.8672L10.8672 5.83911C10.8717 6.31208 10.5074 6.68911 10.0465 6.70703H10.0465H10.0463H10.0461H10.0458H10.0456H10.0454H10.0452H10.045H10.0447H10.0445H10.0443H10.0441H10.0439H10.0437H10.0434H10.0432H10.043H10.0428H10.0425H10.0423H10.0421H10.0419H10.0417H10.0414H10.0412H10.041H10.0408H10.0405H10.0403H10.0401H10.0399H10.0396H10.0394H10.0392H10.039H10.0387H10.0385H10.0383H10.0381H10.0378H10.0376H10.0374H10.0371H10.0369H10.0367H10.0365H10.0362H10.036H10.0358H10.0355H10.0353H10.0351H10.0348H10.0346H10.0344H10.0342H10.0339H10.0337H10.0335H10.0332H10.033H10.0328H10.0325H10.0323H10.0321H10.0318H10.0316H10.0314H10.0311H10.0309H10.0306H10.0304H10.0302H10.0299H10.0297H10.0295H10.0292H10.029H10.0288H10.0285H10.0283H10.028H10.0278H10.0276H10.0273H10.0271H10.0269H10.0266H10.0264H10.0261H10.0259H10.0257H10.0254H10.0252H10.0249H10.0247H10.0244H10.0242H10.024H10.0237H10.0235H10.0232H10.023H10.0228H10.0225H10.0223H10.022H10.0218H10.0215H10.0213H10.0211H10.0208H10.0206H10.0203H10.0201H10.0198H10.0196H10.0193H10.0191H10.0188H10.0186H10.0184H10.0181H10.0179H10.0176H10.0174H10.0171H10.0169H10.0166H10.0164H10.0161H10.0159H10.0156H10.0154H10.0151H10.0149H10.0146H10.0144H10.0141H10.0139H10.0137H10.0134H10.0132H10.0129H10.0127H10.0124H10.0122H10.0119H10.0117H10.0114H10.0112H10.0109H10.0106H10.0104H10.0101H10.0099H10.0096H10.0094H10.0091H10.0089H10.0086H10.0084H10.0081H10.0079H10.0076H10.0074H10.0071H10.0069H10.0066H10.0064H10.0061H10.0059H10.0056H10.0053H10.0051H10.0048H10.0046H10.0043H10.0041H10.0038H10.0036H10.0033H10.0031H10.0028H10.0025H10.0023H10.002H10.0018H10.0015H10.0013H10.001H10.0008H10.0005H10.0002H9.99999H9.99973H9.99948H9.99922H9.99896H9.99871H9.99845H9.99819H9.99794H9.99768H9.99742H9.99717H9.99691H9.99665H9.99639H9.99614H9.99588H9.99562H9.99536H9.99511H9.99485H9.99459H9.99433H9.99407H9.99382H9.99356H9.9933H9.99304H9.99278H9.99252H9.99227H9.99201H9.99175H9.99149H9.99123H9.99097H9.99071H9.99045H9.9902H9.98994H9.98968H9.98942H9.98916H9.9889H9.98864H9.98838H9.98812H9.98786H9.9876H9.98734H9.98708H9.98682H9.98656H9.9863H9.98604H9.98578H9.98552H9.98526H9.985H9.98474H9.98448H9.98422H9.98396H9.9837H9.98344H9.98318H9.98292H9.98266H9.9824H9.98214H9.98188H9.98162H9.98136H9.9811H9.98084H9.98058H9.98032H9.98006H9.9798H9.97954H9.97928H9.97902H9.97876H9.9785H9.97824H9.97798H9.97772H9.97746H9.9772H9.97694H9.97668H9.97642H9.97616H9.97589H9.97563H9.97537H9.97511H9.97485H9.97459H9.97433H9.97407H9.97381H9.97355H9.97329H9.97303H9.97277H9.97251H9.97225H9.97199H9.97173H9.97147H9.97121H9.97095H9.97069H9.97043H9.97017H9.96991H9.96965H9.96939H9.96913H9.96887H9.96861H9.96835H9.96809H9.96783H9.96757H9.96731H9.96705H9.96679H9.96653H9.96627H9.96601H9.96575H9.9655H9.96524H9.96498H9.96472H9.96446H9.9642H9.96394H9.96368H9.96342H9.96316H9.96291H9.96265H9.96239H9.96213H9.96187H9.96161H9.96135H9.9611H9.96084H9.96058H9.96032H9.96006H9.95981H9.95955H9.95929H9.95903H9.95878H9.95852H9.95826H9.958H9.95775H9.95749H9.95723H9.95697H9.95672H9.95646H9.9562H9.95595H9.95569H9.95543H9.95518H9.95492H9.95467H9.95441H9.95415H9.9539H9.95364H9.95339H9.95313H9.95288H9.95262H9.95236H9.95211H9.95185H9.9516H9.95134H9.95109H9.95084H9.95058H9.95033H9.95023C9.48018 6.68293 9.11719 6.30444 9.11719 5.83203C9.11719 5.34624 9.5064 4.95703 9.99218 4.95703C10.4755 4.95703 10.8672 5.35207 10.8672 5.83203Z" fill="#F9A215" stroke="#F9A215" stroke-width="1.5"/>
<path d="M7.71016 9.96484C6.60182 10.7065 6.60182 11.9148 7.71016 12.6565C8.96849 13.4982 11.0352 13.4982 12.2935 12.6565C13.4018 11.9148 13.4018 10.7065 12.2935 9.96484C11.0352 9.13151 8.97682 9.13151 7.71016 9.96484Z" fill="#F9A215"/>
<path opacity="0.4" d="M15 1.66797H5C3.61667 1.66797 2.5 2.7763 2.5 4.14297V13.2346C2.5 14.6013 3.61667 15.7096 5 15.7096H5.63334C6.3 15.7096 6.93333 15.968 7.4 16.4346L8.825 17.843C9.475 18.4846 10.5333 18.4846 11.1833 17.843L12.6083 16.4346C13.075 15.968 13.7167 15.7096 14.375 15.7096H15C16.3833 15.7096 17.5 14.6013 17.5 13.2346V4.14297C17.5 2.7763 16.3833 1.66797 15 1.66797ZM10 4.20964C10.9 4.20964 11.625 4.94297 11.625 5.83464C11.625 6.71797 10.925 7.4263 10.0583 7.45964C10.025 7.45964 9.975 7.45964 9.93333 7.45964C9.05833 7.4263 8.36667 6.71797 8.36667 5.83464C8.375 4.94297 9.1 4.20964 10 4.20964ZM12.2917 12.6596C11.0333 13.5013 8.96667 13.5013 7.70833 12.6596C6.6 11.9263 6.6 10.7096 7.70833 9.96797C8.975 9.1263 11.0417 9.1263 12.2917 9.96797C13.4 10.7096 13.4 11.918 12.2917 12.6596Z" fill="#F9A215"/>
</svg>
