<svg width="20" height="20" viewBox="0 0 20 20" fill="none" xmlns="http://www.w3.org/2000/svg">
<path opacity="0.4" d="M17.5846 10.0013C17.5846 14.1895 14.1895 17.5846 10.0013 17.5846C5.81314 17.5846 2.41797 14.1895 2.41797 10.0013C2.41797 5.81314 5.81314 2.41797 10.0013 2.41797C14.1895 2.41797 17.5846 5.81314 17.5846 10.0013Z" fill="#F9A215" stroke="#F9A215" stroke-width="1.5"/>
<path d="M6.93542 13.3508C6.77708 13.3508 6.61875 13.2924 6.49375 13.1674C6.25208 12.9258 6.25208 12.5258 6.49375 12.2841L11.9521 6.82578C12.1937 6.58411 12.5937 6.58411 12.8354 6.82578C13.0771 7.06745 13.0771 7.46745 12.8354 7.70911L7.37708 13.1674C7.25208 13.2924 7.09375 13.3508 6.93542 13.3508Z" fill="#F9A215"/>
<path d="M7.27631 6.38281C6.60131 6.38281 6.04297 6.93282 6.04297 7.61615C6.04297 8.29115 6.59298 8.84947 7.27631 8.84947C7.95131 8.84947 8.50963 8.29949 8.50963 7.61615C8.5013 6.93282 7.95131 6.38281 7.27631 6.38281Z" fill="#F9A215"/>
<path d="M12.7255 11.1562C12.0505 11.1562 11.4922 11.7062 11.4922 12.3896C11.4922 13.0646 12.0422 13.6229 12.7255 13.6229C13.4005 13.6229 13.9588 13.0729 13.9588 12.3896C13.9588 11.7062 13.4088 11.1562 12.7255 11.1562Z" fill="#F9A215"/>
</svg>
