<svg width="20" height="20" viewBox="0 0 20 20" fill="none" xmlns="http://www.w3.org/2000/svg">
<path opacity="0.4" d="M14.6737 9.24297H17.082C17.1026 9.24297 17.1229 9.25071 17.1402 9.26809C17.1576 9.28547 17.1654 9.30572 17.1654 9.3263V13.693C17.1654 14.9965 16.7162 15.951 16.0436 16.5827C15.3636 17.2214 14.3964 17.5846 13.2737 17.5846H6.7237C5.60103 17.5846 4.63384 17.2214 3.95382 16.5827C3.28121 15.951 2.83203 14.9965 2.83203 13.693V6.30964C2.83203 5.00612 3.28121 4.05158 3.95382 3.41986C4.63384 2.78118 5.60103 2.41797 6.7237 2.41797H10.257C10.2776 2.41797 10.2979 2.42571 10.3152 2.44309C10.3326 2.46047 10.3404 2.48072 10.3404 2.5013V4.90964C10.3404 7.29885 12.2845 9.24297 14.6737 9.24297Z" fill="#F9A215" stroke="#F9A215" stroke-width="1.5"/>
<path d="M14.5339 6.59211L14.5339 6.59207H14.526C13.662 6.59207 12.9844 5.89989 12.9844 5.11707V2.71995C13.7933 3.53123 14.8601 4.60776 15.81 5.5664C16.1762 5.93587 16.525 6.28783 16.8349 6.60035C16.0297 6.60013 15.1783 6.59889 14.5339 6.59211ZM17.3594 7.3504C17.8344 7.3504 18.0844 6.79207 17.751 6.45873C17.3612 6.06621 16.8712 5.57168 16.3448 5.04055C15.2509 3.93668 14.0004 2.67476 13.1677 1.84207C12.826 1.5004 12.2344 1.73373 12.2344 2.20873V5.11707C12.2344 6.33373 13.2677 7.34207 14.526 7.34207C15.3177 7.3504 16.4176 7.3504 17.3592 7.3504H17.3594Z" fill="#F9A215" stroke="#F9A215" stroke-width="1.5"/>
<path d="M11.25 11.457H6.25C5.90833 11.457 5.625 11.1737 5.625 10.832C5.625 10.4904 5.90833 10.207 6.25 10.207H11.25C11.5917 10.207 11.875 10.4904 11.875 10.832C11.875 11.1737 11.5917 11.457 11.25 11.457Z" fill="#F9A215"/>
<path d="M9.58333 14.793H6.25C5.90833 14.793 5.625 14.5096 5.625 14.168C5.625 13.8263 5.90833 13.543 6.25 13.543H9.58333C9.925 13.543 10.2083 13.8263 10.2083 14.168C10.2083 14.5096 9.925 14.793 9.58333 14.793Z" fill="#F9A215"/>
</svg>
