<svg width="24" height="24" viewBox="0 0 24 24" fill="none" xmlns="http://www.w3.org/2000/svg">
<rect width="24" height="24" rx="12" fill="#929292"/>
<path d="M11.98 5.33398C8.30002 5.33398 5.31335 8.32065 5.31335 12.0007C5.31335 15.6807 8.30002 18.6673 11.98 18.6673C15.66 18.6673 18.6467 15.6807 18.6467 12.0007C18.6467 8.32065 15.6667 5.33398 11.98 5.33398ZM13.98 13.4873L12.0467 14.6007C11.8067 14.7407 11.54 14.8073 11.28 14.8073C11.0134 14.8073 10.7534 14.7407 10.5134 14.6007C10.0334 14.3207 9.74669 13.8273 9.74669 13.2673V11.034C9.74669 10.4807 10.0334 9.98065 10.5134 9.70065C10.9934 9.42065 11.5667 9.42065 12.0534 9.70065L13.9867 10.814C14.4667 11.094 14.7534 11.5873 14.7534 12.1473C14.7534 12.7073 14.4667 13.2073 13.98 13.4873Z" fill="white"/>
</svg>
