<svg width="24" height="24" viewBox="0 0 24 24" fill="none" xmlns="http://www.w3.org/2000/svg">
<rect width="24" height="24" rx="12" fill="#929292"/>
<path d="M16.3133 15.2207L16.5733 17.3273C16.64 17.8807 16.0467 18.2673 15.5733 17.9807L13.2667 16.6073C13.1067 16.514 13.0667 16.314 13.1533 16.154C13.4867 15.5407 13.6667 14.8473 13.6667 14.154C13.6667 11.714 11.5733 9.72732 8.99999 9.72732C8.47332 9.72732 7.95999 9.80732 7.47999 9.96732C7.23332 10.0473 6.99332 9.82065 7.05332 9.56732C7.65999 7.14065 9.99332 5.33398 12.78 5.33398C16.0333 5.33398 18.6667 7.79398 18.6667 10.8273C18.6667 12.6273 17.74 14.2207 16.3133 15.2207Z" fill="white"/>
<path d="M12.6666 14.1532C12.6666 14.9466 12.3733 15.6799 11.88 16.2599C11.22 17.0599 10.1733 17.5732 8.99998 17.5732L7.25998 18.6066C6.96665 18.7866 6.59331 18.5399 6.63331 18.1999L6.79998 16.8866C5.90665 16.2666 5.33331 15.2732 5.33331 14.1532C5.33331 12.9799 5.95998 11.9466 6.91998 11.3332C7.51331 10.9466 8.22665 10.7266 8.99998 10.7266C11.0266 10.7266 12.6666 12.2599 12.6666 14.1532Z" fill="white"/>
</svg>
