<svg width="24" height="24" viewBox="0 0 24 24" fill="none" xmlns="http://www.w3.org/2000/svg">
<rect width="24" height="24" rx="12" fill="#929292"/>
<g clip-path="url(#clip0_969_2805)">
<path d="M18.5267 17.8393L18.0467 17.3593C18.2934 16.986 18.44 16.5327 18.44 16.0527C18.44 14.7327 17.3734 13.666 16.0534 13.666C14.7334 13.666 13.6667 14.7327 13.6667 16.0527C13.6667 17.3727 14.7334 18.4393 16.0534 18.4393C16.54 18.4393 16.9867 18.2927 17.36 18.046L17.84 18.526C17.9334 18.6193 18.06 18.666 18.18 18.666C18.3067 18.666 18.4267 18.6193 18.52 18.526C18.7134 18.3327 18.7134 18.026 18.5267 17.8393Z" fill="white"/>
<path d="M5.35336 13.7539C5.35336 13.7739 5.34003 13.8006 5.34003 13.8206C5.95336 15.0472 6.95336 16.0539 8.18003 16.6606C8.20003 16.6606 8.22669 16.6472 8.24669 16.6472C8.02003 15.8739 7.84669 15.0806 7.72003 14.2872C6.92003 14.1539 6.12669 13.9806 5.35336 13.7539Z" fill="white"/>
<path d="M16.7133 8.2863C16.0866 6.97297 15.0266 5.91297 13.72 5.29297C13.96 6.0863 14.16 6.89964 14.2933 7.71297C15.1066 7.8463 15.92 8.03963 16.7133 8.2863Z" fill="white"/>
<path d="M5.28668 8.2857C6.08668 8.0457 6.90002 7.8457 7.71335 7.71237C7.84668 6.91904 8.01335 6.13237 8.24002 5.35904C8.22002 5.35904 8.19335 5.3457 8.17335 5.3457C6.92002 5.9657 5.90002 7.01237 5.28668 8.2857Z" fill="white"/>
<path d="M13.2133 7.57268C13.0533 6.70602 12.8533 5.83935 12.5667 4.99935C12.5533 4.95268 12.5533 4.91268 12.5467 4.85935C12.0533 4.73935 11.5333 4.66602 11 4.66602C10.46 4.66602 9.94668 4.73935 9.44668 4.86602C9.44002 4.91268 9.44668 4.95268 9.43335 5.00602C9.15335 5.84602 8.94668 6.70602 8.78668 7.57268C10.26 7.41268 11.74 7.41268 13.2133 7.57268Z" fill="white"/>
<path d="M7.57335 8.78711C6.70002 8.94711 5.84669 9.15378 5.00002 9.43378C4.95335 9.44711 4.91335 9.44711 4.86669 9.45378C4.74002 9.94711 4.66669 10.4671 4.66669 11.0004C4.66669 11.5404 4.74002 12.0538 4.86669 12.5538C4.91335 12.5604 4.95335 12.5538 5.00669 12.5671C5.84669 12.8471 6.70669 13.0538 7.58002 13.2138C7.41335 11.7404 7.41335 10.2604 7.57335 8.78711Z" fill="white"/>
<path d="M17.1333 9.45378C17.0866 9.45378 17.0466 9.44711 16.9933 9.43378C16.1533 9.15378 15.2866 8.94711 14.42 8.78711C14.5866 10.2604 14.5866 11.7404 14.42 13.2071C15.2866 13.0471 16.1533 12.8471 16.9933 12.5604C17.04 12.5471 17.08 12.5538 17.1333 12.5471C17.2533 12.0471 17.3333 11.5338 17.3333 10.9938C17.3333 10.4671 17.26 9.95378 17.1333 9.45378Z" fill="white"/>
<path d="M8.78668 14.4266C8.94668 15.2999 9.14668 16.1599 9.43335 16.9999C9.44668 17.0466 9.44002 17.0866 9.44668 17.1399C9.94668 17.2599 10.46 17.3333 11 17.3333C11.5333 17.3333 12.0533 17.2599 12.5467 17.1333C12.5533 17.0866 12.5533 17.0466 12.5667 16.9933C12.8467 16.1533 13.0533 15.2933 13.2133 14.4199C12.48 14.4999 11.74 14.5599 11 14.5599C10.26 14.5599 9.52002 14.5066 8.78668 14.4266Z" fill="white"/>
<path d="M8.63334 8.63242C8.43334 10.2058 8.43334 11.7924 8.63334 13.3724C10.2067 13.5724 11.7933 13.5724 13.3733 13.3724C13.5733 11.7991 13.5733 10.2124 13.3733 8.63242C11.7933 8.43242 10.2067 8.43242 8.63334 8.63242Z" fill="white"/>
</g>
<defs>
<clipPath id="clip0_969_2805">
<rect width="16" height="16" fill="white" transform="translate(4 4)"/>
</clipPath>
</defs>
</svg>
