<svg width="24" height="24" viewBox="0 0 24 24" fill="none" xmlns="http://www.w3.org/2000/svg">
<rect width="24" height="24" rx="12" fill="#929292"/>
<path d="M14.7933 5.33398H9.20665C6.77998 5.33398 5.33331 6.78065 5.33331 9.20732V14.794C5.33331 17.2207 6.77998 18.6673 9.20665 18.6673H14.7933C17.22 18.6673 18.6666 17.2207 18.6666 14.794V9.20732C18.6666 6.78065 17.22 5.33398 14.7933 5.33398ZM10.6466 13.934L9.14665 15.434C9.04665 15.534 8.91998 15.5807 8.79331 15.5807C8.66665 15.5807 8.53331 15.534 8.43998 15.434L7.93998 14.934C7.73998 14.7407 7.73998 14.4207 7.93998 14.2273C8.13331 14.034 8.44665 14.034 8.64665 14.2273L8.79331 14.374L9.93998 13.2273C10.1333 13.034 10.4466 13.034 10.6466 13.2273C10.84 13.4207 10.84 13.7407 10.6466 13.934ZM10.6466 9.26732L9.14665 10.7673C9.04665 10.8673 8.91998 10.914 8.79331 10.914C8.66665 10.914 8.53331 10.8673 8.43998 10.7673L7.93998 10.2673C7.73998 10.074 7.73998 9.75398 7.93998 9.56065C8.13331 9.36732 8.44665 9.36732 8.64665 9.56065L8.79331 9.70732L9.93998 8.56065C10.1333 8.36732 10.4466 8.36732 10.6466 8.56065C10.84 8.75398 10.84 9.07398 10.6466 9.26732ZM15.7066 15.0807H12.2066C11.9333 15.0807 11.7066 14.854 11.7066 14.5807C11.7066 14.3073 11.9333 14.0807 12.2066 14.0807H15.7066C15.9866 14.0807 16.2066 14.3073 16.2066 14.5807C16.2066 14.854 15.9866 15.0807 15.7066 15.0807ZM15.7066 10.414H12.2066C11.9333 10.414 11.7066 10.1873 11.7066 9.91398C11.7066 9.64065 11.9333 9.41398 12.2066 9.41398H15.7066C15.9866 9.41398 16.2066 9.64065 16.2066 9.91398C16.2066 10.1873 15.9866 10.414 15.7066 10.414Z" fill="white"/>
</svg>
