<svg width="24" height="24" viewBox="0 0 24 24" fill="none" xmlns="http://www.w3.org/2000/svg">
<rect width="24" height="24" rx="12" fill="#929292"/>
<path d="M17.6666 14.6667V16.3333C17.6666 17.62 16.62 18.6667 15.3333 18.6667H8.66665C7.37998 18.6667 6.33331 17.62 6.33331 16.3333V15.9C6.33331 14.8533 7.18665 14 8.23331 14H17C17.3666 14 17.6666 14.3 17.6666 14.6667Z" fill="white"/>
<path d="M14.3333 5.33398H9.66665C6.99998 5.33398 6.33331 6.00065 6.33331 8.66732V13.7207C6.83998 13.274 7.50665 13.0007 8.23331 13.0007H17C17.3666 13.0007 17.6666 12.7007 17.6666 12.334V8.66732C17.6666 6.00065 17 5.33398 14.3333 5.33398ZM12.6666 11.1673H9.33331C9.05998 11.1673 8.83331 10.9407 8.83331 10.6673C8.83331 10.394 9.05998 10.1673 9.33331 10.1673H12.6666C12.94 10.1673 13.1666 10.394 13.1666 10.6673C13.1666 10.9407 12.94 11.1673 12.6666 11.1673ZM14.6666 8.83398H9.33331C9.05998 8.83398 8.83331 8.60732 8.83331 8.33398C8.83331 8.06065 9.05998 7.83398 9.33331 7.83398H14.6666C14.94 7.83398 15.1666 8.06065 15.1666 8.33398C15.1666 8.60732 14.94 8.83398 14.6666 8.83398Z" fill="white"/>
</svg>
