<svg width="24" height="24" viewBox="0 0 24 24" fill="none" xmlns="http://www.w3.org/2000/svg">
<rect width="24" height="24" rx="12" fill="#929292"/>
<path d="M13.5667 5.33398H10.4333C9.74001 5.33398 9.17334 5.89398 9.17334 6.58732V7.21398C9.17334 7.90732 9.73334 8.46732 10.4267 8.46732H13.5667C14.26 8.46732 14.82 7.90732 14.82 7.21398V6.58732C14.8267 5.89398 14.26 5.33398 13.5667 5.33398Z" fill="white"/>
<path d="M15.4934 7.2143C15.4934 8.2743 14.6267 9.14096 13.5667 9.14096H10.4334C9.37336 9.14096 8.50669 8.2743 8.50669 7.2143C8.50669 6.84096 8.10669 6.60763 7.77336 6.78096C6.83336 7.28096 6.19336 8.2743 6.19336 9.4143V15.6876C6.19336 17.3276 7.53336 18.6676 9.17336 18.6676H14.8267C16.4667 18.6676 17.8067 17.3276 17.8067 15.6876V9.4143C17.8067 8.2743 17.1667 7.28096 16.2267 6.78096C15.8934 6.60763 15.4934 6.84096 15.4934 7.2143ZM12.2534 15.301H9.33336C9.06003 15.301 8.83336 15.0743 8.83336 14.801C8.83336 14.5276 9.06003 14.301 9.33336 14.301H12.2534C12.5267 14.301 12.7534 14.5276 12.7534 14.801C12.7534 15.0743 12.5267 15.301 12.2534 15.301ZM14 12.6343H9.33336C9.06003 12.6343 8.83336 12.4076 8.83336 12.1343C8.83336 11.861 9.06003 11.6343 9.33336 11.6343H14C14.2734 11.6343 14.5 11.861 14.5 12.1343C14.5 12.4076 14.2734 12.6343 14 12.6343Z" fill="white"/>
</svg>
