<svg width="24" height="24" viewBox="0 0 24 24" fill="none" xmlns="http://www.w3.org/2000/svg">
<rect width="24" height="24" rx="12" fill="#F9A215"/>
<path d="M18.0466 7.48536C16.9733 7.3787 15.8999 7.2987 14.8199 7.2387V7.23203L14.6733 6.36536C14.5733 5.75203 14.4266 4.83203 12.8666 4.83203H11.1199C9.56661 4.83203 9.41994 5.71203 9.31328 6.3587L9.17328 7.21203C8.55328 7.25203 7.93328 7.29203 7.31328 7.35203L5.95328 7.48536C5.67328 7.51203 5.47328 7.7587 5.49994 8.03203C5.52661 8.30536 5.76661 8.50536 6.04661 8.4787L7.40661 8.34536C10.8999 7.9987 14.4199 8.13203 17.9533 8.48536C17.9733 8.48536 17.9866 8.48536 18.0066 8.48536C18.2599 8.48536 18.4799 8.29203 18.5066 8.03203C18.5266 7.7587 18.3266 7.51203 18.0466 7.48536Z" fill="white"/>
<path d="M16.82 9.42797C16.66 9.2613 16.44 9.16797 16.2134 9.16797H7.7867C7.56004 9.16797 7.33337 9.2613 7.18004 9.42797C7.0267 9.59464 6.94004 9.8213 6.95337 10.0546L7.3667 16.8946C7.44004 17.908 7.53337 19.1746 9.86004 19.1746H14.14C16.4667 19.1746 16.56 17.9146 16.6334 16.8946L17.0467 10.0613C17.06 9.8213 16.9734 9.59464 16.82 9.42797ZM13.1067 15.8346H10.8867C10.6134 15.8346 10.3867 15.608 10.3867 15.3346C10.3867 15.0613 10.6134 14.8346 10.8867 14.8346H13.1067C13.38 14.8346 13.6067 15.0613 13.6067 15.3346C13.6067 15.608 13.38 15.8346 13.1067 15.8346ZM13.6667 13.168H10.3334C10.06 13.168 9.83337 12.9413 9.83337 12.668C9.83337 12.3946 10.06 12.168 10.3334 12.168H13.6667C13.94 12.168 14.1667 12.3946 14.1667 12.668C14.1667 12.9413 13.94 13.168 13.6667 13.168Z" fill="white"/>
</svg>
