<svg width="24" height="24" viewBox="0 0 24 24" fill="none" xmlns="http://www.w3.org/2000/svg">
<rect width="24" height="24" rx="12" fill="#F9A215"/>
<path d="M18 18.668H6C5.72667 18.668 5.5 18.4413 5.5 18.168C5.5 17.8946 5.72667 17.668 6 17.668H18C18.2733 17.668 18.5 17.8946 18.5 18.168C18.5 18.4413 18.2733 18.668 18 18.668Z" fill="white"/>
<path d="M16.68 6.31848C15.3867 5.02514 14.12 4.99181 12.7933 6.31848L11.9867 7.12514C11.92 7.19181 11.8933 7.29848 11.92 7.39181C12.4267 9.15848 13.84 10.5718 15.6067 11.0785C15.6333 11.0851 15.66 11.0918 15.6867 11.0918C15.76 11.0918 15.8267 11.0651 15.88 11.0118L16.68 10.2051C17.34 9.55181 17.66 8.91848 17.66 8.27848C17.6667 7.61848 17.3467 6.97848 16.68 6.31848Z" fill="white"/>
<path d="M14.4067 11.6885C14.2133 11.5952 14.0267 11.5018 13.8467 11.3952C13.7 11.3085 13.56 11.2152 13.42 11.1152C13.3067 11.0418 13.1733 10.9352 13.0467 10.8285C13.0333 10.8218 12.9867 10.7818 12.9333 10.7285C12.7133 10.5418 12.4667 10.3018 12.2467 10.0352C12.2267 10.0218 12.1933 9.97516 12.1467 9.91516C12.08 9.83516 11.9667 9.70182 11.8667 9.54849C11.7867 9.44849 11.6933 9.30182 11.6067 9.15516C11.5 8.97516 11.4067 8.79516 11.3133 8.60849C11.191 8.34626 10.8468 8.26836 10.6422 8.47298L6.89334 12.2218C6.80668 12.3085 6.72668 12.4752 6.70668 12.5885L6.34668 15.1418C6.28001 15.5952 6.40668 16.0218 6.68668 16.3085C6.92668 16.5418 7.26001 16.6685 7.62001 16.6685C7.70001 16.6685 7.78001 16.6618 7.86001 16.6485L10.42 16.2885C10.54 16.2685 10.7067 16.1885 10.7867 16.1018L14.5417 12.3468C14.7422 12.1463 14.6669 11.8012 14.4067 11.6885Z" fill="white"/>
</svg>
