<svg width="24" height="24" viewBox="0 0 24 24" fill="none" xmlns="http://www.w3.org/2000/svg">
<rect width="24" height="24" rx="12" fill="#F9A215"/>
<path d="M16.0134 12.2207L15.2 11.4073C15.0067 11.2407 14.8934 10.994 14.8867 10.7207C14.8734 10.4207 14.9934 10.1207 15.2134 9.90065L16.0134 9.10065C16.7067 8.40732 16.9667 7.74065 16.7467 7.21398C16.5334 6.69398 15.8734 6.40732 14.9 6.40732H7.93335V5.83398C7.93335 5.56065 7.70668 5.33398 7.43335 5.33398C7.16002 5.33398 6.93335 5.56065 6.93335 5.83398V18.1673C6.93335 18.4407 7.16002 18.6673 7.43335 18.6673C7.70668 18.6673 7.93335 18.4407 7.93335 18.1673V14.914H14.9C15.86 14.914 16.5067 14.6207 16.7267 14.094C16.9467 13.5673 16.6934 12.9073 16.0134 12.2207Z" fill="white"/>
</svg>
