<svg width="24" height="24" viewBox="0 0 24 24" fill="none" xmlns="http://www.w3.org/2000/svg">
<rect width="24" height="24" rx="12" fill="#F9A215"/>
<path d="M14.7934 5.33203H9.20671C6.78004 5.33203 5.33337 6.7787 5.33337 9.20536V14.792C5.33337 17.2187 6.78004 18.6654 9.20671 18.6654H14.7934C17.22 18.6654 18.6667 17.2187 18.6667 14.792V9.20536C18.6667 6.7787 17.22 5.33203 14.7934 5.33203ZM10.6467 13.932L9.14671 15.432C9.04671 15.532 8.92004 15.5787 8.79337 15.5787C8.66671 15.5787 8.53337 15.532 8.44004 15.432L7.94004 14.932C7.74004 14.7387 7.74004 14.4187 7.94004 14.2254C8.13337 14.032 8.44671 14.032 8.64671 14.2254L8.79337 14.372L9.94004 13.2254C10.1334 13.032 10.4467 13.032 10.6467 13.2254C10.84 13.4187 10.84 13.7387 10.6467 13.932ZM10.6467 9.26536L9.14671 10.7654C9.04671 10.8654 8.92004 10.912 8.79337 10.912C8.66671 10.912 8.53337 10.8654 8.44004 10.7654L7.94004 10.2654C7.74004 10.072 7.74004 9.75203 7.94004 9.5587C8.13337 9.36537 8.44671 9.36537 8.64671 9.5587L8.79337 9.70537L9.94004 8.5587C10.1334 8.36536 10.4467 8.36536 10.6467 8.5587C10.84 8.75203 10.84 9.07203 10.6467 9.26536ZM15.7067 15.0787H12.2067C11.9334 15.0787 11.7067 14.852 11.7067 14.5787C11.7067 14.3054 11.9334 14.0787 12.2067 14.0787H15.7067C15.9867 14.0787 16.2067 14.3054 16.2067 14.5787C16.2067 14.852 15.9867 15.0787 15.7067 15.0787ZM15.7067 10.412H12.2067C11.9334 10.412 11.7067 10.1854 11.7067 9.91203C11.7067 9.6387 11.9334 9.41203 12.2067 9.41203H15.7067C15.9867 9.41203 16.2067 9.6387 16.2067 9.91203C16.2067 10.1854 15.9867 10.412 15.7067 10.412Z" fill="white"/>
</svg>
