<svg width="24" height="24" viewBox="0 0 24 24" fill="none" xmlns="http://www.w3.org/2000/svg">
<rect width="24" height="24" rx="12" fill="#F9A215"/>
<path d="M16.3133 15.2187L16.5733 17.3254C16.6399 17.8787 16.0466 18.2654 15.5733 17.9787L13.2666 16.6054C13.1066 16.512 13.0666 16.312 13.1533 16.152C13.4866 15.5387 13.6666 14.8454 13.6666 14.152C13.6666 11.712 11.5733 9.72536 8.99993 9.72536C8.47326 9.72536 7.95993 9.80536 7.47993 9.96536C7.23326 10.0454 6.99326 9.8187 7.05326 9.56536C7.65993 7.1387 9.99326 5.33203 12.7799 5.33203C16.0333 5.33203 18.6666 7.79203 18.6666 10.8254C18.6666 12.6254 17.7399 14.2187 16.3133 15.2187Z" fill="white"/>
<path d="M12.6666 14.1532C12.6666 14.9466 12.3733 15.6799 11.8799 16.2599C11.2199 17.0599 10.1733 17.5732 8.99992 17.5732L7.25992 18.6066C6.96659 18.7866 6.59325 18.5399 6.63325 18.1999L6.79992 16.8866C5.90659 16.2666 5.33325 15.2732 5.33325 14.1532C5.33325 12.9799 5.95992 11.9466 6.91992 11.3332C7.51325 10.9466 8.22659 10.7266 8.99992 10.7266C11.0266 10.7266 12.6666 12.2599 12.6666 14.1532Z" fill="white"/>
</svg>
