<svg width="24" height="24" viewBox="0 0 24 24" fill="none" xmlns="http://www.w3.org/2000/svg">
<rect width="24" height="24" rx="12" fill="#F9A215"/>
<path d="M11.98 5.33203C8.30002 5.33203 5.31335 8.3187 5.31335 11.9987C5.31335 15.6787 8.30002 18.6654 11.98 18.6654C15.66 18.6654 18.6467 15.6787 18.6467 11.9987C18.6467 8.3187 15.6667 5.33203 11.98 5.33203ZM13.98 13.4854L12.0467 14.5987C11.8067 14.7387 11.54 14.8054 11.28 14.8054C11.0134 14.8054 10.7534 14.7387 10.5134 14.5987C10.0334 14.3187 9.74669 13.8254 9.74669 13.2654V11.032C9.74669 10.4787 10.0334 9.9787 10.5134 9.6987C10.9934 9.4187 11.5667 9.4187 12.0534 9.6987L13.9867 10.812C14.4667 11.092 14.7534 11.5854 14.7534 12.1454C14.7534 12.7054 14.4667 13.2054 13.98 13.4854Z" fill="white"/>
</svg>
