<svg width="24" height="24" viewBox="0 0 24 24" fill="none" xmlns="http://www.w3.org/2000/svg">
<rect width="24" height="24" rx="12" fill="#F9A215"/>
<path d="M17.6667 14.6667V16.3333C17.6667 17.62 16.62 18.6667 15.3334 18.6667H8.66671C7.38004 18.6667 6.33337 17.62 6.33337 16.3333V15.9C6.33337 14.8533 7.18671 14 8.23337 14H17C17.3667 14 17.6667 14.3 17.6667 14.6667Z" fill="white"/>
<path d="M14.3334 5.33203H9.66671C7.00004 5.33203 6.33337 5.9987 6.33337 8.66536V13.7187C6.84004 13.272 7.50671 12.9987 8.23337 12.9987H17C17.3667 12.9987 17.6667 12.6987 17.6667 12.332V8.66536C17.6667 5.9987 17 5.33203 14.3334 5.33203ZM12.6667 11.1654H9.33337C9.06004 11.1654 8.83337 10.9387 8.83337 10.6654C8.83337 10.392 9.06004 10.1654 9.33337 10.1654H12.6667C12.94 10.1654 13.1667 10.392 13.1667 10.6654C13.1667 10.9387 12.94 11.1654 12.6667 11.1654ZM14.6667 8.83203H9.33337C9.06004 8.83203 8.83337 8.60537 8.83337 8.33203C8.83337 8.0587 9.06004 7.83203 9.33337 7.83203H14.6667C14.94 7.83203 15.1667 8.0587 15.1667 8.33203C15.1667 8.60537 14.94 8.83203 14.6667 8.83203Z" fill="white"/>
</svg>
