<svg width="24" height="24" viewBox="0 0 24 24" fill="none" xmlns="http://www.w3.org/2000/svg">
<rect width="24" height="24" rx="12" fill="#F9A215"/>
<path d="M14.5333 5.47365C14.26 5.20032 13.7866 5.38699 13.7866 5.76699V8.09365C13.7866 9.06699 14.6133 9.87365 15.62 9.87365C16.2533 9.88032 17.1333 9.88032 17.8866 9.88032C18.2666 9.88032 18.4666 9.43365 18.2 9.16699C17.24 8.20032 15.52 6.46032 14.5333 5.47365Z" fill="white"/>
<path d="M17.6667 10.792H15.7401C14.1601 10.792 12.8734 9.50536 12.8734 7.92536V5.9987C12.8734 5.63203 12.5734 5.33203 12.2067 5.33203H9.38008C7.32675 5.33203 5.66675 6.66536 5.66675 9.04536V14.952C5.66675 17.332 7.32675 18.6654 9.38008 18.6654H14.6201C16.6734 18.6654 18.3334 17.332 18.3334 14.952V11.4587C18.3334 11.092 18.0334 10.792 17.6667 10.792ZM11.6667 15.832H9.00008C8.72675 15.832 8.50008 15.6054 8.50008 15.332C8.50008 15.0587 8.72675 14.832 9.00008 14.832H11.6667C11.9401 14.832 12.1667 15.0587 12.1667 15.332C12.1667 15.6054 11.9401 15.832 11.6667 15.832ZM13.0001 13.1654H9.00008C8.72675 13.1654 8.50008 12.9387 8.50008 12.6654C8.50008 12.392 8.72675 12.1654 9.00008 12.1654H13.0001C13.2734 12.1654 13.5001 12.392 13.5001 12.6654C13.5001 12.9387 13.2734 13.1654 13.0001 13.1654Z" fill="white"/>
</svg>
